#!OML:ASF F:\VICON\USERDATA\INSTALL\rory3\rory3.ASF
:FULLY-SPECIFIED
:DEGREES
87
root -0.438347 17.3707 17.0699 2.69637 5.2939 1.12907
lowerback 17.2101 0.773664 -0.873845
upperback -0.428011 0.87576 0.244664
thorax -10.1757 0.469677 0.538591
lowerneck -20.4915 -4.80019 -1.42789
upperneck 8.8141 -6.89844 6.03365
head 6.25542 -2.87147 1.39962
rclavicle -7.25564e-015 2.14687e-014
rhumerus -53.7331 9.60287 -97.0305
rradius 101.503
rwrist -17.2027
rhand -11.7147 -323.583
rfingers 7.12502
rthumb 14.3319 6.93144
lclavicle -7.25564e-015 2.14687e-014
lhumerus -33.6635 -12.6579 95.3493
lradius 119.393
lwrist 37.8885
lhand -20.557 5.34019
lfingers 7.12502
lthumb 5.80208 35.2407
rfemur -32.7494 -7.87486 19.4562
rtibia 108.663
rfoot 4.81846 -4.52718
rtoes 11.8131
lfemur -8.93464 -1.86093 -27.7225
ltibia 40.2585
lfoot -22.3731 0.811707
ltoes -8.48085
88
root -0.436469 17.4396 17.589 2.84789 5.33364 1.24011
lowerback 17.0982 0.488414 -1.08787
upperback -0.595228 0.469376 0.385939
thorax -10.2935 0.2938 0.91866
lowerneck -20.2193 -4.50751 -1.30505
upperneck 8.96824 -6.50399 5.725
head 6.23054 -2.7053 1.3305
rclavicle 2.13197e-014 1.61016e-014
rhumerus -55.4007 9.94571 -97.4604
rradius 102.59
rwrist -17.4481
rhand -11.9853 -323.879
rfingers 7.12502
rthumb 14.0711 6.61687
lclavicle 2.13197e-014 1.61016e-014
lhumerus -32.8916 -12.193 95.3028
lradius 120.505
lwrist 37.6393
lhand -20.711 5.36667
lfingers 7.12502
lthumb 5.65341 35.2713
rfemur -35.0653 -7.95553 19.6435
rtibia 107.355
rfoot 6.02986 -4.24961
rtoes 13.2781
lfemur -6.55545 -1.88435 -27.8024
ltibia 39.0111
lfoot -21.1132 0.847145
ltoes -14.016
89
root -0.422665 17.5237 18.1132 3.04381 5.98106 1.3438
lowerback 16.77 -0.111639 -1.07886
upperback -0.662257 -0.300325 0.594825
thorax -10.1591 -0.0660427 1.33584
lowerneck -20.1147 -4.19952 -1.39009
upperneck 9.01213 -6.04917 5.57419
head 6.2085 -2.50311 1.34921
rclavicle -8.54774e-015 -2.26615e-014
rhumerus -56.7933 10.5009 -97.7484
rradius 103.668
rwrist -17.6629
rhand -11.6577 -323.89
rfingers 7.12502
rthumb 14.3868 6.62901
lclavicle -8.54774e-015 -2.26615e-014
lhumerus -31.8906 -11.4471 95.214
lradius 121.405
lwrist 37.5716
lhand -20.7946 4.9005
lfingers 7.12502
lthumb 5.57262 34.8072
rfemur -36.9131 -8.6133 19.8002
rtibia 105.514
rfoot 5.96225 -4.07061
rtoes 12.6796
lfemur -4.30672 -2.31908 -27.8351
ltibia 37.6609
lfoot -19.2679 0.438661
ltoes -19.1236
90
root -0.41944 17.6183 18.6333 2.99157 6.07055 1.5221
lowerback 16.6932 -0.493266 -1.42165
upperback -0.537749 -0.849823 0.828034
thorax -9.9517 -0.305316 1.91934
lowerneck -20.5639 -3.90993 -1.50072
upperneck 9.30134 -5.62283 5.41956
head 6.35584 -2.30059 1.35835
rclavicle -7.95139e-015 3.57812e-015
rhumerus -57.8445 11.1003 -97.9081
rradius 104.774
rwrist -17.8414
rhand -11.0817 -323.728
rfingers 7.12502
rthumb 14.9418 6.83124
lclavicle -7.95139e-015 3.57812e-015
lhumerus -30.714 -10.7073 95.0121
lradius 122.259
lwrist 37.8511
lhand -20.691 4.02908
lfingers 7.12502
lthumb 5.67268 33.9331
rfemur -38.3962 -8.53241 19.9483
rtibia 103.313
rfoot 5.14937 -4.03952
rtoes 10.3443
lfemur -1.90232 -2.20446 -27.9303
ltibia 36.0697
lfoot -16.8045 -0.623939
ltoes -21.8734
91
root -0.423901 17.717 19.1617 2.78181 5.42826 1.66015
lowerback 16.7424 -0.584892 -1.95994
upperback -0.403125 -1.0565 1.04143
thorax -9.8089 -0.373318 2.50782
lowerneck -21.1657 -3.63118 -1.53304
upperneck 9.83062 -5.24161 5.26122
head 6.60576 -2.11103 1.34731
rclavicle 6.31141e-015 -7.55382e-015
rhumerus -58.8395 11.6291 -98.0971
rradius 105.784
rwrist -18.1119
rhand -10.5373 -323.883
rfingers 7.12502
rthumb 15.4662 6.71592
lclavicle 6.31141e-015 -7.55382e-015
lhumerus -29.861 -10.1453 94.8068
lradius 123.103
lwrist 38.7075
lhand -20.7539 2.43521
lfingers 7.12502
lthumb 5.61198 32.3409
rfemur -39.6217 -7.49709 20.1804
rtibia 100.776
rfoot 4.26074 -4.20421
rtoes 9.97502
lfemur 0.776047 -1.48857 -27.9936
ltibia 34.3399
lfoot -13.9892 -1.88104
ltoes -24.9103
92
root -0.396888 17.8277 19.704 2.67103 5.23601 2.26482
lowerback 16.7715 -0.894631 -2.32596
upperback -0.533724 -1.54629 0.997101
thorax -9.93396 -0.585618 2.79225
lowerneck -21.1898 -3.34461 -1.58952
upperneck 10.3287 -4.84167 5.10041
head 6.7544 -1.92606 1.3498
rclavicle 6.36111e-015 -1.78906e-014
rhumerus -60.2437 11.9304 -98.3108
rradius 106.633
rwrist -18.3257
rhand -10.2141 -323.679
rfingers 7.12502
rthumb 15.7774 6.94379
lclavicle 6.36111e-015 -1.78906e-014
lhumerus -29.7315 -9.77369 94.5762
lradius 123.947
lwrist 39.8239
lhand -20.6374 1.02811
lfingers 7.12502
lthumb 5.72447 30.9308
rfemur -40.4142 -7.15774 19.5855
rtibia 97.8114
rfoot 3.05737 -4.09559
rtoes 10.0338
lfemur 3.52171 -1.28076 -28.6517
ltibia 32.5381
lfoot -10.6472 -3.75125
ltoes -27.524
93
root -0.356304 17.9309 20.2399 2.66027 5.4127 2.48233
lowerback 16.7489 -1.39577 -1.93836
upperback -0.853451 -2.13989 0.97131
thorax -10.2525 -0.879464 2.69823
lowerneck -20.498 -3.05224 -1.63667
upperneck 10.4968 -4.43262 5.00059
head 6.68177 -1.74925 1.37966
rclavicle -2.88238e-015 9.93923e-015
rhumerus -61.8493 11.8924 -98.5852
rradius 107.317
rwrist -18.1512
rhand -10.2794 -323.346
rfingers 7.12502
rthumb 15.7146 7.27175
lclavicle -2.88238e-015 9.93923e-015
lhumerus -30.2035 -9.66808 94.3179
lradius 124.85
lwrist 41.0181
lhand -20.1056 1.1775
lfingers 7.12502
lthumb 6.2379 31.0657
rfemur -41.0391 -7.15787 19.4019
rtibia 94.5198
rfoot 1.7321 -3.85764
rtoes 7.98929
lfemur 6.06635 -1.47115 -28.9087
ltibia 30.7132
lfoot -6.64481 -6.03488
ltoes -28.0753
94
root -0.342646 18.0441 20.7799 2.94779 5.31731 2.14539
lowerback 16.2929 -1.75211 -1.50125
upperback -1.14072 -2.49966 1.20081
thorax -10.2974 -1.06471 2.77853
lowerneck -20.0736 -2.85132 -1.61702
upperneck 10.6647 -4.14668 4.79866
head 6.65192 -1.63326 1.34762
rclavicle -1.74931e-014 8.34896e-015
rhumerus -63.0969 11.807 -98.7286
rradius 107.876
rwrist -17.9888
rhand -10.3469 -322.996
rfingers 7.12502
rthumb 15.6496 7.61705
lclavicle -1.74931e-014 8.34896e-015
lhumerus -30.5143 -9.63621 93.9663
lradius 125.698
lwrist 41.6591
lhand -19.226 2.28882
lfingers 7.12502
lthumb 7.08698 32.1502
rfemur -41.9727 -6.51019 20.1488
rtibia 90.8055
rfoot 1.16493 -4.16607
rtoes 7.31176
lfemur 8.01057 -1.48753 -28.3783
ltibia 28.7489
lfoot -1.99649 -7.62092
ltoes -28.2975
95
root -0.371025 18.1412 21.3267 3.69278 2.09574 2.05674
lowerback 15.2785 -0.820286 -2.62626
upperback -1.40048 -1.43571 1.46306
thorax -10.0271 -0.492568 3.41792
lowerneck -20.2138 -2.72396 -1.6934
upperneck 11.1411 -3.95373 4.66376
head 6.82134 -1.54665 1.33661
rclavicle 1.23743e-014 -7.95139e-015
rhumerus -64.0923 11.5343 -98.7028
rradius 108.494
rwrist -18.012
rhand -10.1835 -323.061
rfingers 7.12502
rthumb 15.8069 7.56458
lclavicle 1.23743e-014 -7.95139e-015
lhumerus -30.6149 -10.0984 93.7818
lradius 126.353
lwrist 41.7091
lhand -19.3609 3.50004
lfingers 7.12502
lthumb 6.95676 33.3657
rfemur -43.9008 -2.70186 20.5949
rtibia 86.9487
rfoot 1.48349 -4.63053
rtoes 6.73485
lfemur 9.09414 0.696682 -28.5135
ltibia 26.9369
lfoot 3.20198 -7.78608
ltoes -29.3836
96
root -0.360268 18.2642 21.9059 3.57399 1.61186 1.75655
lowerback 14.9934 -0.99586 -2.34933
upperback -1.44773 -1.58916 1.704
thorax -9.90332 -0.576153 3.54944
lowerneck -20.1508 -2.52713 -1.8462
upperneck 11.3571 -3.651 4.62942
head 6.87322 -1.40926 1.38596
rclavicle -9.44227e-015 -2.38542e-015
rhumerus -65.0474 11.3298 -98.6303
rradius 109.099
rwrist -18.4208
rhand -10.1038 -323.447
rfingers 7.12502
rthumb 15.8837 7.18458
lclavicle -9.44227e-015 -2.38542e-015
lhumerus -30.9537 -10.8507 93.7539
lradius 127.158
lwrist 42.9811
lhand -21.4946 3.57077
lfingers 7.12502
lthumb 4.89681 33.4942
rfemur -43.7936 -1.75146 21.1043
rtibia 82.5478
rfoot 1.03677 -4.90171
rtoes 5.10674
lfemur 11.0735 0.645543 -28.2175
ltibia 25.2789
lfoot 8.86371 -8.51743
ltoes -30.8275
97
root -0.352619 18.3681 22.4871 3.73397 1.19733 0.734229
lowerback 14.3263 -1.22015 -1.39045
upperback -1.67781 -1.66588 2.13486
thorax -9.77969 -0.652826 3.47141
lowerneck -19.4214 -2.41964 -1.94736
upperneck 11.3213 -3.48173 4.611
head 6.73754 -1.34535 1.42062
rclavicle 9.44227e-015 -4.77083e-015
rhumerus -66.2329 10.9047 -98.5262
rradius 109.751
rwrist -18.9318
rhand -9.89265 -323.828
rfingers 7.12502
rthumb 16.087 6.82016
lclavicle 9.44227e-015 -4.77083e-015
lhumerus -31.7969 -12.1161 94.0697
lradius 128.258
lwrist 46.0852
lhand -24.9064 2.78252
lfingers 7.12502
lthumb 1.60194 32.7563
rfemur -43.775 -0.643586 22.436
rtibia 77.9066
rfoot 0.905377 -5.35116
rtoes 4.06072
lfemur 12.7695 0.310443 -27.1932
ltibia 23.7192
lfoot 13.5404 -9.05293
ltoes -32.6939
